<svg xmlns="http://www.w3.org/2000/svg" width="58" height="54"><g fill="none" fill-rule="evenodd"><path fill="#CAD6DE" d="M15.893 18.56l.31-.12-.31.12zm24.716-7.312h-.043c-.758 0-1.528.022-2.273.044l-.684.02c-.273.007-.55.037-.82.065-.137.015-.274.03-.41.04l-.079.007-.917.082c-.96.088-1.84.16-2.687.219-.98.068-1.976.109-2.94.149-.596.024-1.191.049-1.786.08-2.026.103-3.673.287-5.184.577a75.806 75.806 0 00-2.727.569c-.758.174-1.517.395-2.25.61l-.038.011c-.555.163-1.108.362-1.643.554l-.551.197a86.22 86.22 0 01-2.461.811c-1.094.348-2 .743-2.767 1.208-.388.234-.735.528-1.086.834-.121.104-.24.23-.385.406l-.08.097a7.381 7.381 0 00-.371.474c-.23.336-.363.703-.462 1.019l-.019.119-.019.117c-.064.281-.09.568-.077.853.013.172.033.343.059.514l.015.134.01.067-.024.107c-.092.422-.187.858-.257 1.292l-.227 1.385-.227 1.377-.268 1.632a24.716 24.716 0 00-.198 1.675l-.056.566-.027.253-.256 2.454c-.06.581-.1 1.176-.138 1.75-.018.279-.037.557-.057.835a59.36 59.36 0 00-.093 1.636l-.033.654c-.042.806-.049 1.62-.051 2.312-.004.745.006 1.541.098 2.313.101.85.205 1.727.491 2.557.216.626.503 1.353.991 2.004.356.474.682.88.996 1.24.506.575.98 1.07 1.448 1.51.241.229.503.44.735.628.673.545 1.444.974 2.357 1.312.73.27 1.506.426 2.238.563.486.089 1.008.18 1.533.245.767.095 1.584.181 2.498.262.803.073 1.531.108 2.227.108.265 0 .53-.005.792-.016.498-.022 1.003-.102 1.491-.18l.288-.044c.183-.028.364-.061.546-.097l1.66-.328c1.344-.265 2.702-.558 3.968-.835.807-.177 1.616-.345 2.427-.51.545-.113 1.104-.207 1.644-.298l.432-.073c.636-.082 1.26-.16 1.885-.213.776-.065 1.602-.125 2.678-.193.358-.023.717-.043 1.076-.063 1.264-.07 2.57-.144 3.838-.343.712-.112 1.552-.262 2.37-.53.635-.21 1.465-.503 2.253-.914.768-.402 1.537-.89 2.283-1.453l.411-.305c.296-.219.602-.445.891-.68.5-.405.862-.745 1.173-1.1.38-.437.751-.947 1.133-1.56.299-.478.553-.973.831-1.523a28.62 28.62 0 00.917-1.935c.892-2.149 1.03-4.563 1.089-6.658.028-.988 0-2.052-.087-3.252-.106-1.474-.284-2.658-.558-3.725-.237-.917-.565-1.822-.883-2.698l-.186-.514c-.527-1.475-1.292-2.807-2.164-4.272-.406-.68-.876-1.327-1.324-1.932-.221-.3-.436-.589-.671-.856-.268-.3-.617-.546-.954-.784l-.216-.153c-.407-.293-.851-.545-1.28-.789l-.05-.028a12.556 12.556 0 00-1.758-.85c-1.07-.408-2.233-.558-3.332-.675-1.059-.113-2.215-.166-3.638-.168z"/><path fill="#424D57" d="M6.535 50.518a1.558 1.558 0 01-.18.074l.18-.074M35.417.008c-.285-.002-.57.027-.852.046L33.004.15c-.812.051-1.623.13-2.435.195-1.193.096-2.385.18-3.582.227a46.923 46.923 0 01-3.655.006c-.744-.03-1.487-.057-2.23-.086a26.2 26.2 0 00-4.91.292c-1.136.172-2.273.34-3.411.504l-1.702.14c-.57.047-1.15.028-1.724.039-.461.008-.926.003-1.387.018-.404.013-.809.026-1.212.054a10.14 10.14 0 00-1.274.178c-.411.08-.799.28-1.176.457a2.032 2.032 0 00-.948 2.302c.142.51.486.952.948 1.219.454.263 1.078.375 1.588.205.125-.042.248-.076.373-.105.593-.026 1.19.01 1.782.021.407.008.815.006 1.222.008.841.006 1.678-.043 2.514-.127.567-.058 1.141-.099 1.705-.192.532-.087 1.064-.177 1.596-.265.875-.145 1.746-.31 2.624-.44a28.628 28.628 0 013.016-.18c.488-.007.975.008 1.464.015.83.014 1.66.017 2.49.01.384-.003.769-.005 1.153-.009.431-.002.869-.055 1.298-.083.81-.053 1.61-.126 2.416-.207 1.626-.164 3.25-.344 4.877-.493.31-.028.622-.072.934-.082l1.57-.05c.802-.027 1.602.024 2.405.056.356.012.713.053 1.068.083.51.043 1.017.086 1.525.144.86.133 1.714.315 2.53.615a4.3 4.3 0 01.486.29c.525.435.999.92 1.481 1.4.486.483.982.968 1.438 1.48.06.087.115.176.167.27.351.94.544 1.938.762 2.911.205.916.332 1.849.461 2.778.068.771.143 1.542.177 2.315.038.875.053 1.746.06 2.62.01 1.51-.004 3.023-.025 4.533-.022 1.6-.033 3.2-.103 4.797-.074 1.69-.17 3.378-.264 5.066a48.57 48.57 0 01-.256 3.143c-.098.645-.232 1.278-.46 1.89a4.39 4.39 0 01-.257.451 8.68 8.68 0 01-.804.756c-.462.326-.949.6-1.45.868a21.27 21.27 0 01-1.274.641c-.8.28-1.654.39-2.493.513-1.45.146-2.907.07-4.36.02-1.599-.054-3.192-.01-4.79.046-3.17.111-6.343.059-9.515.084-1.422.013-2.84.047-4.247.272-.69.11-1.368.23-2.05.378-.6.128-1.196.286-1.798.42-.376.083-.753.164-1.13.25a7.923 7.923 0 00-1.92.738c-.225.117-.451.23-.673.352a6.338 6.338 0 00-1.142.82c-.302.266-.531.628-.763.955-.162.228-.292.487-.423.734-.149.28-.298.561-.445.844-.193.369-.376.739-.618 1.078-.268.331-.545.655-.827.976-.384.436-.762.9-1.188 1.3a6.185 6.185 0 01-.106-.004 4.517 4.517 0 01-.355-.1 9.541 9.541 0 01-1.264-.756 1.793 1.793 0 01-.065-.06 2.921 2.921 0 01-.07-.119 9.624 9.624 0 01-.335-1.494c-.179-1.574-.256-3.158-.349-4.74-.089-1.542-.269-3.075-.39-4.617-.253-3.214-.201-6.449-.153-9.67.023-1.558.095-3.12.085-4.678a339.993 339.993 0 00-.055-4.843c-.065-3.32-.138-6.64-.187-9.961-.007-.44-.01-.878-.013-1.318a.788.788 0 00.52-.368c.116-.196.111-.38.08-.598-.072-.475-.142-.953-.21-1.43-.067-.546-.108-1.1-.24-1.634-.164-.66-1.008-.82-1.479-.386-.192.178-.314.319-.41.564-.073.19-.116.37-.151.572a22 22 0 00-.204 1.566c-.05.505-.074 1.014-.107 1.52C.7 8.893.666 9.731.63 10.57a303.622 303.622 0 00-.146 4.497 640.75 640.75 0 00-.11 4.747C.345 21.445.337 23.079.272 24.71.146 27.97.003 31.23 0 34.493c-.002 1.59.004 3.196.134 4.782.137 1.668.27 3.334.355 5.005.073 1.423.125 2.853.305 4.268.131 1.046.27 2.156.891 3.045.506.724 1.272 1.174 2.02 1.615a6.13 6.13 0 001.424.612c.3.085.62.1.927.135.282.033.644 0 .91-.064l.23-.054c.215-.086.429-.174.64-.264a7.82 7.82 0 00.674-.513c.34-.287.624-.667.918-1.002.24-.273.482-.548.717-.828.205-.244.405-.493.603-.744.247-.315.495-.618.681-.973l.257-.488c.301-.578.588-1.175.96-1.714.067-.077.138-.15.214-.222.209-.135.428-.25.654-.36.213-.105.426-.21.641-.31.55-.188 1.123-.27 1.696-.37a66.62 66.62 0 001.083-.193c.666-.122 1.334-.237 2.001-.353l.813-.102c.421-.054.854-.063 1.278-.093.27-.019.546-.016.82-.013.134.001.268.002.401.001.396-.003.792.004 1.19.009 1.647.018 3.296.043 4.944.06 1.524.015 3.047.015 4.571-.042 1.596-.06 3.191-.116 4.79-.099.762.009 1.524.034 2.285.003.912-.037 1.81-.111 2.713-.246.711-.108 1.422-.26 2.12-.433.801-.2 1.552-.595 2.261-1.004.332-.192.659-.393.98-.603.732-.478 1.426-1.008 2.038-1.633.365-.374.698-.805.952-1.26.292-.525.485-1.126.628-1.706.138-.556.204-1.131.274-1.699.04-.31.07-.623.089-.936l.1-1.62c.045-.748.06-1.5.09-2.249.027-.731.068-1.462.091-2.192.11-3.309.135-6.616.145-9.927.006-1.518.025-3.042-.094-4.558l-.11-1.414c-.035-.43-.112-.86-.167-1.29a37.656 37.656 0 00-.393-2.468c-.15-.764-.277-1.544-.494-2.293-.076-.26-.149-.52-.243-.775a4.753 4.753 0 00-.343-.728c-.157-.275-.387-.517-.586-.762-.383-.471-.836-.905-1.251-1.351-.889-.954-1.773-2.013-2.985-2.564C44.124.736 42.259.48 40.4.263c-.855-.1-1.707-.165-2.566-.227A16.931 16.931 0 0036.626 0c-.403 0-.807.007-1.21.007"/></g></svg>